<svg width="72" height="77" viewBox="0 0 72 77" fill="none" xmlns="http://www.w3.org/2000/svg">
<circle cx="36" cy="41" r="35.5" fill="#265ECE" stroke="black"/>
<mask id="path-2-outside-1_12571_8" maskUnits="userSpaceOnUse" x="10" y="21" width="53" height="42" fill="black">
<rect fill="white" x="10" y="21" width="53" height="42"/>
<path d="M61.112 26.736H40.312V39.088C42.104 37.488 44.664 36.4 47.8 36.4C53.88 36.4 57.464 40.304 57.464 46.64C57.464 51.12 55.864 55.152 52.088 59.312L47.608 56.496C50.424 53.616 52.344 50.48 52.344 46.576C52.344 42.864 50.488 40.88 47.224 40.88C44.536 40.88 41.912 42.736 40.312 45.616V62H35.128V51.12C32.824 53.168 29.752 54.448 25.912 54.448C19.384 54.448 13.944 50.736 13.944 43.376C13.944 36.4 18.808 32.304 27.128 32.304C29.304 32.304 31.288 32.56 32.888 32.944L32.44 37.616C30.968 37.232 29.176 36.976 27.256 36.976C22.008 36.976 19.128 39.28 19.128 43.568C19.128 47.792 22.072 49.84 25.912 49.84C29.816 49.84 33.208 47.664 35.128 44.912V26.736H11V22.192H61.112V26.736Z"/>
</mask>
<path d="M61.112 26.736H40.312V39.088C42.104 37.488 44.664 36.4 47.8 36.4C53.88 36.4 57.464 40.304 57.464 46.64C57.464 51.12 55.864 55.152 52.088 59.312L47.608 56.496C50.424 53.616 52.344 50.48 52.344 46.576C52.344 42.864 50.488 40.88 47.224 40.88C44.536 40.88 41.912 42.736 40.312 45.616V62H35.128V51.12C32.824 53.168 29.752 54.448 25.912 54.448C19.384 54.448 13.944 50.736 13.944 43.376C13.944 36.4 18.808 32.304 27.128 32.304C29.304 32.304 31.288 32.56 32.888 32.944L32.44 37.616C30.968 37.232 29.176 36.976 27.256 36.976C22.008 36.976 19.128 39.28 19.128 43.568C19.128 47.792 22.072 49.84 25.912 49.84C29.816 49.84 33.208 47.664 35.128 44.912V26.736H11V22.192H61.112V26.736Z" fill="white"/>
<path d="M61.112 26.736V27.736H62.112V26.736H61.112ZM40.312 26.736V25.736H39.312V26.736H40.312ZM40.312 39.088H39.312V41.3215L40.978 39.8339L40.312 39.088ZM52.088 59.312L51.5558 60.1586L52.2653 60.6046L52.8285 59.9841L52.088 59.312ZM47.608 56.496L46.893 55.7969L46.0265 56.6831L47.0758 57.3426L47.608 56.496ZM40.312 45.616L39.4378 45.1304L39.312 45.3569V45.616H40.312ZM40.312 62V63H41.312V62H40.312ZM35.128 62H34.128V63H35.128V62ZM35.128 51.12H36.128V48.8932L34.4636 50.3726L35.128 51.12ZM32.888 32.944L33.8834 33.0395L33.9664 32.1744L33.1214 31.9716L32.888 32.944ZM32.44 37.616L32.1876 38.5836L33.3234 38.8799L33.4354 37.7115L32.44 37.616ZM35.128 44.912L35.9481 45.4842L36.128 45.2264V44.912H35.128ZM35.128 26.736H36.128V25.736H35.128V26.736ZM11 26.736H10V27.736H11V26.736ZM11 22.192V21.192H10V22.192H11ZM61.112 22.192H62.112V21.192H61.112V22.192ZM61.112 25.736H40.312V27.736H61.112V25.736ZM39.312 26.736V39.088H41.312V26.736H39.312ZM40.978 39.8339C42.5815 38.4022 44.9026 37.4 47.8 37.4V35.4C44.4254 35.4 41.6265 36.5738 39.646 38.3421L40.978 39.8339ZM47.8 37.4C50.6192 37.4 52.7502 38.2988 54.1822 39.8276C55.6221 41.365 56.464 43.6561 56.464 46.64H58.464C58.464 43.2879 57.5139 40.459 55.6418 38.4604C53.7618 36.4532 51.0608 35.4 47.8 35.4V37.4ZM56.464 46.64C56.464 50.8342 54.9835 54.6342 51.3475 58.6399L52.8285 59.9841C56.7446 55.6698 58.464 51.4058 58.464 46.64H56.464ZM52.6202 58.4654L48.1402 55.6494L47.0758 57.3426L51.5558 60.1586L52.6202 58.4654ZM48.323 57.1951C51.2281 54.224 53.344 50.8501 53.344 46.576H51.344C51.344 50.1099 49.6199 53.008 46.893 55.7969L48.323 57.1951ZM53.344 46.576C53.344 44.5654 52.8413 42.8671 51.7482 41.6636C50.6415 40.4452 49.0629 39.88 47.224 39.88V41.88C48.6491 41.88 49.6305 42.3068 50.2678 43.0084C50.9187 43.7249 51.344 44.8746 51.344 46.576H53.344ZM47.224 39.88C44.067 39.88 41.156 42.0376 39.4378 45.1304L41.1862 46.1016C42.668 43.4344 45.005 41.88 47.224 41.88V39.88ZM39.312 45.616V62H41.312V45.616H39.312ZM40.312 61H35.128V63H40.312V61ZM36.128 62V51.12H34.128V62H36.128ZM34.4636 50.3726C32.3475 52.2536 29.5136 53.448 25.912 53.448V55.448C29.9904 55.448 33.3005 54.0824 35.7924 51.8674L34.4636 50.3726ZM25.912 53.448C22.8276 53.448 20.0831 52.5707 18.1273 50.9098C16.1935 49.2674 14.944 46.7875 14.944 43.376H12.944C12.944 47.3245 14.4145 50.3806 16.8327 52.4342C19.2289 54.4693 22.4684 55.448 25.912 55.448V53.448ZM14.944 43.376C14.944 40.1371 16.0626 37.6677 18.0594 35.9895C20.0799 34.2914 23.1194 33.304 27.128 33.304V31.304C22.8166 31.304 19.2641 32.3646 16.7726 34.4585C14.2574 36.5723 12.944 39.6389 12.944 43.376H14.944ZM27.128 33.304C29.2289 33.304 31.1344 33.5515 32.6546 33.9164L33.1214 31.9716C31.4416 31.5685 29.3791 31.304 27.128 31.304V33.304ZM31.8926 32.8485L31.4446 37.5205L33.4354 37.7115L33.8834 33.0395L31.8926 32.8485ZM32.6924 36.6484C31.1382 36.2429 29.2614 35.976 27.256 35.976V37.976C29.0906 37.976 30.7978 38.2211 32.1876 38.5836L32.6924 36.6484ZM27.256 35.976C24.5054 35.976 22.2153 36.5772 20.5955 37.8862C18.9409 39.2234 18.128 41.1829 18.128 43.568H20.128C20.128 41.6651 20.7551 40.3286 21.8525 39.4418C22.9847 38.5268 24.7586 37.976 27.256 37.976V35.976ZM18.128 43.568C18.128 45.9305 18.962 47.7924 20.43 49.048C21.8752 50.2839 23.8256 50.84 25.912 50.84V48.84C24.1584 48.84 22.7168 48.372 21.73 47.528C20.766 46.7036 20.128 45.4295 20.128 43.568H18.128ZM25.912 50.84C30.1899 50.84 33.8697 48.4632 35.9481 45.4842L34.3079 44.3398C32.5463 46.8648 29.4421 48.84 25.912 48.84V50.84ZM36.128 44.912V26.736H34.128V44.912H36.128ZM35.128 25.736H11V27.736H35.128V25.736ZM12 26.736V22.192H10V26.736H12ZM11 23.192H61.112V21.192H11V23.192ZM60.112 22.192V26.736H62.112V22.192H60.112Z" fill="black" mask="url(#path-2-outside-1_12571_8)"/>
</svg>
